<svg id="chat" width="24" height="24" viewBox="0 0 24 24" fill="none" xmlns="http://www.w3.org/2000/svg">
<path fill-rule="evenodd" clip-rule="evenodd" d="M0 9C0 10.5545 0.498805 12.0055 1.36191 13.2333L0.494498 16.2693C0.278969 17.0236 0.976393 17.721 1.73074 17.5055L5.58545 16.4042C6.63839 16.7882 7.79137 17 9 17C13.9706 17 18 13.4183 18 9C18 4.58172 13.9706 1 9 1C4.02944 1 0 4.58172 0 9ZM3.76572 13.9201C3.97314 13.1942 3.84135 12.4133 3.40716 11.7956C2.81957 10.9597 2.5 10.0055 2.5 9C2.5 6.23112 5.1252 3.5 9 3.5C12.8748 3.5 15.5 6.23112 15.5 9C15.5 11.7689 12.8748 14.5 9 14.5C8.08401 14.5 7.22096 14.3396 6.44215 14.0555C5.94637 13.8747 5.40608 13.8554 4.89865 14.0003L3.64006 14.3599L3.76572 13.9201Z" fill="black"/>
<path d="M20.4997 8.99991C20.4997 9.34554 20.4821 9.68586 20.4477 10.0204C21.1243 10.911 21.4997 11.9528 21.4997 12.9999C21.4997 14.0054 21.1801 14.9596 20.5926 15.7955C20.1584 16.4132 20.0266 17.1941 20.234 17.92L20.3597 18.3598L19.1011 18.0003C18.5936 17.8553 18.0534 17.8746 17.5576 18.0554C16.7788 18.3395 15.9157 18.4999 14.9997 18.4999C14.6643 18.4999 14.3382 18.4794 14.0224 18.4403C12.6912 19.0304 11.2314 19.3916 9.71948 19.4791C11.2026 20.4358 13.0271 20.9999 14.9997 20.9999C16.2083 20.9999 17.3613 20.7881 18.4143 20.4041L22.269 21.5054C23.0233 21.7209 23.7208 21.0235 23.5052 20.2692L22.6378 17.2332C23.5009 16.0054 23.9997 14.5544 23.9997 12.9999C23.9997 10.2901 22.484 7.89501 20.1651 6.44788C20.3832 7.25762 20.4997 8.11122 20.4997 8.99991Z" fill="black"/>
</svg>
