<svg id="checks" width="24" height="24" viewBox="0 0 24 24" fill="none" xmlns="http://www.w3.org/2000/svg">
<path d="M23.0003 6.00003C23.4884 6.48818 23.4884 7.27964 23.0003 7.76779L13.3842 17.3839C12.896 17.8721 12.1046 17.8721 11.6164 17.3839C11.1282 16.8958 11.1282 16.1043 11.6164 15.6161L21.2325 6.00003C21.7207 5.51187 22.5121 5.51187 23.0003 6.00003Z" fill="black"/>
<path d="M16.5003 7.7678C16.9884 7.27964 16.9884 6.48818 16.5003 6.00003C16.0121 5.51187 15.2207 5.51187 14.7325 6.00003L5.99479 14.7378L2.76801 11.5509C2.27682 11.0658 1.48538 11.0708 1.00028 11.5619C0.515171 12.0531 0.520102 12.8446 1.01129 13.3297L5.12192 17.3894C5.61094 17.8724 6.39815 17.8699 6.88416 17.3839L16.5003 7.7678Z" fill="black"/>
</svg>
