<svg id="home" width="24" height="24" viewBox="0 0 24 24" fill="none" xmlns="http://www.w3.org/2000/svg">
<path fill-rule="evenodd" clip-rule="evenodd" d="M13.4069 20.8052C13.5729 20.9276 13.778 21 14 21H20C20.5523 21 21 20.5522 21 20V11.8284C21 11.2979 20.7893 10.7892 20.4142 10.4142L13.4142 3.41416C12.6332 2.63311 11.3668 2.63311 10.5858 3.41416L3.58579 10.4142C3.21071 10.7892 3 11.2979 3 11.8284V20C3 20.5522 3.44772 21 4 21H10C10.222 21 10.4271 20.9276 10.5931 20.8052C10.8399 20.6231 11 20.3302 11 20V15H13V20C13 20.3302 13.1601 20.6231 13.4069 20.8052ZM12 5.53548L5.5 12.0355V18.5H8.5V13.4999C8.5 12.9477 8.94772 12.4999 9.5 12.4999H14.5C15.0523 12.4999 15.5 12.9477 15.5 13.4999V18.5H18.5V12.0355L12 5.53548Z" fill="black"/>
</svg>
