<svg id="info" width="24" height="24" viewBox="0 0 24 24" fill="none" xmlns="http://www.w3.org/2000/svg">
<path d="M11.1739 16.95C10.8977 16.95 10.6739 16.7261 10.6739 16.45V10.5864C10.6739 10.3102 10.8977 10.0864 11.1739 10.0864H12.8202C13.0963 10.0864 13.3202 10.3102 13.3202 10.5864V16.45C13.3202 16.4673 13.3193 16.4843 13.3176 16.5011C13.292 16.7533 13.079 16.95 12.8202 16.95H11.1739Z" fill="black"/>
<path d="M11.997 8.81932C11.6391 8.81932 11.3322 8.70107 11.0766 8.46456C10.8209 8.22806 10.693 7.94361 10.693 7.61122C10.693 7.27884 10.8209 6.99439 11.0766 6.75788C11.3322 6.52138 11.6391 6.40313 11.997 6.40313C12.3582 6.40313 12.665 6.52138 12.9175 6.75788C13.1731 6.99439 13.301 7.27884 13.301 7.61122C13.301 7.94361 13.1731 8.22806 12.9175 8.46456C12.665 8.70107 12.3582 8.81932 11.997 8.81932Z" fill="black"/>
<path fill-rule="evenodd" clip-rule="evenodd" d="M22 12C22 17.5228 17.5228 22 12 22C6.47715 22 2 17.5228 2 12C2 6.47715 6.47715 2 12 2C17.5228 2 22 6.47715 22 12ZM19.5 12C19.5 16.1421 16.1421 19.5 12 19.5C7.85787 19.5 4.5 16.1421 4.5 12C4.5 7.85787 7.85787 4.5 12 4.5C16.1421 4.5 19.5 7.85787 19.5 12Z" fill="black"/>
</svg>
