<svg id="layers" width="24" height="24" viewBox="0 0 24 24" fill="none" xmlns="http://www.w3.org/2000/svg">
<path fill-rule="evenodd" clip-rule="evenodd" d="M13.2122 16.3265C12.4963 16.8721 11.5041 16.8721 10.7881 16.3265L3.58816 10.8409C2.53761 10.0405 2.53761 8.4596 3.58816 7.65918L10.7881 2.17354C11.5041 1.62803 12.4963 1.62803 13.2122 2.17354L20.4121 7.65918C21.4627 8.4596 21.4627 10.0405 20.4122 10.8409L13.2122 16.3265ZM18.375 9.25004L12.0002 14.1071L5.62527 9.25004L12.0002 4.39299L18.375 9.25004Z" fill="black"/>
<path d="M19.314 14.1776C19.7405 13.8526 20.3316 13.8528 20.758 14.1779C21.3832 14.6546 21.3832 15.5955 20.758 16.0722L13.2128 21.8254C12.4966 22.3715 11.5037 22.3715 10.7875 21.8254L3.24231 16.0722C2.61715 15.5955 2.61715 14.6546 3.24231 14.1779C3.29561 14.1372 3.35149 14.1017 3.40929 14.0712C3.81392 13.8578 4.31314 13.8933 4.68635 14.1776L12.0002 19.75L19.314 14.1776Z" fill="black"/>
</svg>
