<svg id="moon" width="24" height="24" viewBox="0 0 24 24" fill="none" xmlns="http://www.w3.org/2000/svg">
<path fill-rule="evenodd" clip-rule="evenodd" d="M20.6716 12.4857C21.1118 12.1222 21.9647 12.4293 21.9506 13C21.9211 13.2976 21.8785 13.5914 21.8234 13.8807C21.7665 14.1796 21.6963 14.4739 21.6135 14.7627C21.5966 14.8217 21.5791 14.8804 21.5612 14.9389C20.3059 19.0276 16.5001 22 12 22C6.47715 22 2 17.5229 2 12C2 7.49993 4.97246 3.6941 9.06107 2.43884C9.11959 2.42087 9.17833 2.40343 9.2373 2.38651C9.52616 2.30365 9.82038 2.23346 10.1193 2.17657C10.4087 2.12151 10.7024 2.07892 11 2.04937C11.5707 2.03528 11.8778 2.88819 11.5143 3.32842C11.3941 3.47405 11.2798 3.62501 11.1719 3.78085C11.1294 3.84229 11.0879 3.90449 11.0474 3.96741C10.9303 4.14923 10.8218 4.33714 10.7225 4.53048C10.7081 4.55869 10.6938 4.58702 10.6797 4.61547C10.2463 5.48997 10 6.47174 10 7.5C10 11.0899 12.9102 14 16.5 14C17.5283 14 18.51 13.7537 19.3845 13.3203C19.413 13.3063 19.4413 13.292 19.4695 13.2775C19.6629 13.1782 19.8508 13.0697 20.0326 12.9527C20.0955 12.9122 20.1577 12.8706 20.2192 12.8281C20.375 12.7202 20.526 12.606 20.6716 12.4857ZM16.5 16.5C17.048 16.5 17.5855 16.4498 18.1077 16.3542C16.7473 18.2583 14.518 19.5 12 19.5C7.85787 19.5 4.5 16.1421 4.5 12C4.5 9.48198 5.74172 7.25267 7.64579 5.8923C7.55025 6.41454 7.5 6.95197 7.5 7.5C7.5 12.4706 11.5294 16.5 16.5 16.5Z" fill="black"/>
</svg>
