<svg id="plus" width="24" height="24" viewBox="0 0 24 24" fill="none" xmlns="http://www.w3.org/2000/svg">
<path d="M10.7519 19.75C10.7519 20.4403 11.3116 21 12.0019 21C12.6923 21 13.2519 20.4403 13.2519 19.75V13.25H19.7519C20.4423 13.25 21.0019 12.6903 21.0019 12C21.0019 11.3096 20.4423 10.75 19.7519 10.75H13.2519V4.25C13.2519 3.55965 12.6923 3 12.0019 3C11.3116 3 10.7519 3.55964 10.7519 4.25V10.75H4.25195C3.5616 10.75 3.00195 11.3096 3.00195 12C3.00195 12.6903 3.5616 13.25 4.25195 13.25H10.7519V19.75Z" fill="black"/>
</svg>
