<svg id="settings" width="24" height="24" viewBox="0 0 24 24" fill="none" xmlns="http://www.w3.org/2000/svg">
<path fill-rule="evenodd" clip-rule="evenodd" d="M12.0002 15.75C14.0713 15.75 15.7502 14.0711 15.7502 12C15.7502 9.92893 14.0713 8.25 12.0002 8.25C9.92917 8.25 8.25023 9.92893 8.25023 12C8.25023 14.0711 9.92917 15.75 12.0002 15.75ZM12.0002 13.25C12.6906 13.25 13.2502 12.6904 13.2502 12C13.2502 11.3096 12.6906 10.75 12.0002 10.75C11.3099 10.75 10.7502 11.3096 10.7502 12C10.7502 12.6904 11.3099 13.25 12.0002 13.25Z" fill="black"/>
<path fill-rule="evenodd" clip-rule="evenodd" d="M15.1182 1.86489L15.5203 4.81406C15.8475 4.97464 16.1621 5.1569 16.4623 5.35898L19.2185 4.23223C19.6814 4.043 20.2129 4.2248 20.463 4.65787L22.5901 8.34213C22.8401 8.77521 22.7318 9.3264 22.3365 9.63266L19.9821 11.4566C19.9941 11.6362 20.0002 11.8174 20.0002 12C20.0002 12.1826 19.9941 12.3638 19.9821 12.5434L22.3365 14.3673C22.7318 14.6736 22.8401 15.2248 22.5901 15.6579L20.463 19.3421C20.2129 19.7752 19.6814 19.957 19.2185 19.7678L16.4623 18.641C16.1621 18.8431 15.8475 19.0254 15.5203 19.1859L15.1182 22.1351C15.0506 22.6306 14.6274 23 14.1273 23H9.87313C9.37306 23 8.94987 22.6306 8.8823 22.1351L8.48014 19.1859C8.15296 19.0254 7.83835 18.8431 7.53818 18.641L4.78195 19.7678C4.31907 19.957 3.78756 19.7752 3.53752 19.3421L1.41042 15.6579C1.16038 15.2248 1.26869 14.6736 1.66401 14.3673L4.01841 12.5434C4.00636 12.3638 4.00025 12.1826 4.00025 12C4.00025 11.8174 4.00636 11.6362 4.01841 11.4566L1.66401 9.63266C1.26869 9.3264 1.16038 8.77521 1.41041 8.34213L3.53752 4.65787C3.78755 4.2248 4.31906 4.043 4.78195 4.23223L7.53818 5.35898C7.83835 5.1569 8.15296 4.97464 8.48014 4.81406L8.8823 1.86489C8.94987 1.3694 9.37306 1 9.87313 1H14.1273C14.6274 1 15.0506 1.3694 15.1182 1.86489ZM13.2232 6.47153L14.4189 7.05834C14.6434 7.16853 14.8596 7.29376 15.0662 7.43282L16.1731 8.17804L18.9526 7.04179L19.7703 8.45821L17.3986 10.2956L17.4877 11.6239C17.496 11.7479 17.5002 11.8732 17.5002 12C17.5002 12.1268 17.496 12.2522 17.4877 12.3761L17.3986 13.7044L19.7703 15.5418L18.9526 16.9582L16.1731 15.822L15.0662 16.5672C14.8596 16.7062 14.6434 16.8315 14.4189 16.9417L13.2232 17.5285L12.818 20.5H11.1825L10.7773 17.5285L9.5816 16.9417C9.35708 16.8315 9.14088 16.7062 8.93433 16.5672L7.82737 15.822L5.04792 16.9582L4.23015 15.5418L6.6019 13.7044L6.5128 12.3761C6.50449 12.2521 6.50024 12.1268 6.50024 12C6.50024 11.8732 6.50449 11.7479 6.5128 11.6239L6.6019 10.2956L4.23014 8.45821L5.04791 7.04179L7.82737 8.17804L8.93433 7.43281C9.14087 7.29376 9.35708 7.16854 9.5816 7.05834L10.7773 6.47153L11.1825 3.5H12.818L13.2232 6.47153Z" fill="black"/>
</svg>
