<svg id="sun" width="24" height="24" viewBox="0 0 24 24" fill="none" xmlns="http://www.w3.org/2000/svg">
<g clip-path="url(#clip0_36_963)">
<path d="M12 4C11.3096 4 10.75 3.44036 10.75 2.75V1.25C10.75 0.559644 11.3096 0 12 0C12.6904 0 13.25 0.559644 13.25 1.25V2.75C13.25 3.44036 12.6904 4 12 4Z" fill="black"/>
<path d="M17.6569 6.34315C17.1687 5.85499 17.1687 5.06354 17.6569 4.57538L18.7175 3.51472C19.2057 3.02657 19.9971 3.02657 20.4853 3.51472C20.9734 4.00288 20.9734 4.79433 20.4853 5.28249L19.4246 6.34315C18.9365 6.83131 18.145 6.83131 17.6569 6.34315Z" fill="black"/>
<path d="M21.25 10.75C20.5596 10.75 20 11.3096 20 12C20 12.6904 20.5596 13.25 21.25 13.25H22.75C23.4404 13.25 24 12.6904 24 12C24 11.3096 23.4404 10.75 22.75 10.75H21.25Z" fill="black"/>
<path d="M17.6569 17.6569C18.145 17.1687 18.9365 17.1687 19.4246 17.6569L20.4853 18.7175C20.9734 19.2057 20.9734 19.9971 20.4853 20.4853C19.9971 20.9734 19.2057 20.9734 18.7175 20.4853L17.6569 19.4246C17.1687 18.9365 17.1687 18.145 17.6569 17.6569Z" fill="black"/>
<path d="M12 24C11.3096 24 10.75 23.4404 10.75 22.75V21.25C10.75 20.5596 11.3096 20 12 20C12.6904 20 13.25 20.5596 13.25 21.25V22.75C13.25 23.4404 12.6904 24 12 24Z" fill="black"/>
<path fill-rule="evenodd" clip-rule="evenodd" d="M12 18C15.3137 18 18 15.3137 18 12C18 8.68629 15.3137 6 12 6C8.68629 6 6 8.68629 6 12C6 15.3137 8.68629 18 12 18ZM12 15.5C13.933 15.5 15.5 13.933 15.5 12C15.5 10.067 13.933 8.5 12 8.5C10.067 8.5 8.5 10.067 8.5 12C8.5 13.933 10.067 15.5 12 15.5Z" fill="black"/>
<path d="M3.51473 3.51472C4.00288 3.02657 4.79434 3.02657 5.28249 3.51472L6.34315 4.57539C6.83131 5.06354 6.83131 5.855 6.34315 6.34315C5.855 6.83131 5.06354 6.83131 4.57539 6.34315L3.51473 5.28249C3.02657 4.79434 3.02657 4.00288 3.51473 3.51472Z" fill="black"/>
<path d="M3.51472 20.4853C3.02656 19.9971 3.02656 19.2057 3.51472 18.7175L4.57538 17.6569C5.06354 17.1687 5.85499 17.1687 6.34315 17.6569C6.8313 18.145 6.8313 18.9365 6.34315 19.4246L5.28249 20.4853C4.79433 20.9734 4.00287 20.9734 3.51472 20.4853Z" fill="black"/>
<path d="M0 12C0 11.3096 0.559644 10.75 1.25 10.75H2.75C3.44036 10.75 4 11.3096 4 12C4 12.6904 3.44036 13.25 2.75 13.25H1.25C0.559644 13.25 0 12.6904 0 12Z" fill="black"/>
</g>
<defs>
<clipPath id="clip0_36_963">
<rect width="24" height="24" fill="white"/>
</clipPath>
</defs>
</svg>
